<!DOCTYPE svg PUBLIC "-//W3C//DTD SVG 1.1//EN" "http://www.w3.org/Graphics/SVG/1.1/DTD/svg11.dtd">
<!-- Uploaded to: SVG Repo, www.svgrepo.com, Transformed by: SVG Repo Mixer Tools -->
<svg height="800px" width="800px" version="1.1" id="_x32_" xmlns="http://www.w3.org/2000/svg" xmlns:xlink="http://www.w3.org/1999/xlink" viewBox="0 0 512 512" xml:space="preserve" fill="#000000">
<g id="SVGRepo_bgCarrier" stroke-width="0"/>
<g id="SVGRepo_tracerCarrier" stroke-linecap="round" stroke-linejoin="round"/>
<g id="SVGRepo_iconCarrier"> <style type="text/css"> .st0{fill:#fb9dab;} </style> <g> <path class="st0" d="M421.955,304.1c-49.73,0-90.045,40.315-90.045,90.045c0,49.73,40.315,90.045,90.045,90.045 c49.739,0,90.045-40.315,90.045-90.045C512,344.414,471.694,304.1,421.955,304.1z M473.415,409.154h-36.452v36.443h-30.009v-36.443 h-36.452v-30.018h36.452v-36.451h30.009v36.451h36.452V409.154z"/> <polygon class="st0" points="257.195,382.917 258.455,318.647 222.49,318.647 223.742,382.917 "/> <polygon class="st0" points="388.436,291.76 393.321,236.082 353.031,236.082 349.884,291.76 "/> <polygon class="st0" points="285.936,291.76 322.914,291.76 326.061,236.082 287.04,236.082 "/> <polygon class="st0" points="321.398,318.647 285.417,318.647 284.157,382.917 317.765,382.917 "/> <polygon class="st0" points="260.078,236.082 220.866,236.082 221.954,291.76 258.982,291.76 "/> <polygon class="st0" points="196.78,382.917 195.519,318.647 159.529,318.647 163.179,382.917 "/> <polygon class="st0" points="154.867,236.082 158.022,291.76 194.992,291.76 193.905,236.082 "/> <path class="st0" d="M107.51,382.917H136.2l-3.624-64.27H94.873l5.033,57.301C100.244,379.894,103.555,382.917,107.51,382.917z"/> <polygon class="st0" points="87.616,236.082 92.508,291.76 131.052,291.76 127.906,236.082 "/> <path class="st0" d="M98.093,410.694c-6.87,0-13.122-2.57-17.916-6.862c-4.786-4.3-8.015-10.231-8.764-17.069l-0.017-0.123 l-0.016-0.19L48.248,215.842h384.44l-9.68,71.437c8.287,0.082,16.319,1.177,24.062,3.048l10.47-77.236h2.241 c13.666,0,24.754-11.088,24.754-24.754v-11.616c0-13.674-11.088-24.753-24.754-24.753h-50.076h-39.977h-43.692l74.113-54.566 l-0.008-0.016c4.835-3.41,8.616-7.859,11.153-12.818c2.587-5.058,3.922-10.643,3.929-16.294c0-6.985-2.084-14.119-6.351-20.281 l0.009,0.008l-3.345-4.836l-0.016-0.008c-3.427-4.967-7.975-8.838-13.04-11.425c-5.059-2.587-10.635-3.922-16.286-3.922 c-6.994-0.008-14.128,2.076-20.273,6.351l-0.14,0.083l-147.214,108.39l0.017,0.008c-3.666,2.586-6.722,5.766-9.094,9.325h-84.683 H74.823H24.754C11.08,151.968,0,163.047,0,176.721v11.616c0,13.204,10.355,23.971,23.395,24.68l23.946,176.688h0.008 c1.474,12.8,7.636,24.128,16.632,32.184c9.061,8.138,21.097,13.056,34.112,13.056H323.17c-3.18-7.668-5.396-15.816-6.714-24.251 H98.093z M219.005,166.516c0.84-1.607,2.027-3.016,3.658-4.152l0.166-0.107L369.762,54.072c2.01-1.376,4.201-2.01,6.434-2.01 c1.82,0,3.633,0.428,5.239,1.26c1.614,0.824,3.032,2.019,4.168,3.649l-0.016-0.008l3.352,4.835v0.008 c1.392,2.018,2.027,4.209,2.034,6.466c0,1.812-0.428,3.625-1.26,5.239c-0.84,1.615-2.026,3.032-3.658,4.16l-0.132,0.091 l-146.959,108.2c-2.01,1.376-4.201,2.01-6.442,2.018c-1.813,0-3.624-0.437-5.239-1.268c-1.614-0.824-3.015-2.026-4.152-3.649 l-3.353-4.836v0.008c-1.392-2.018-2.018-4.218-2.026-6.475C217.753,169.95,218.182,168.13,219.005,166.516z"/> </g> </g>
</svg>